<svg width="355" height="326" viewBox="0 0 355 326" fill="none" xmlns="http://www.w3.org/2000/svg">
<path d="M99.8848 325.619C82.8335 325.619 67.2544 321.473 54.4017 313.455C38.5612 303.568 28.2913 288.603 25.4908 271.308C23.3262 257.937 24.0361 231.478 53.1474 204.536C75.3118 184.018 108.574 168.269 152.005 157.724C185.629 149.563 215.341 146.527 240.972 148.6C243.107 135.368 243.799 120.882 242.484 105.107C240.049 75.8611 227.767 56.4753 205.977 47.4859C189.165 40.5521 166.905 40.1253 143.295 46.2751C118.395 52.7646 92.9292 66.3533 71.5749 84.5413C58.8442 95.3862 47.6683 107.69 38.3565 121.118C31.8191 130.547 18.8706 132.895 9.44129 126.353C0.0119256 119.815 -2.33562 106.867 4.20614 97.4375C15.5649 81.0614 29.1624 66.0746 44.6283 52.9039C99.9457 5.78763 171.152 -11.8255 221.818 9.06722C258.128 24.041 280.175 56.924 283.895 101.662C285.484 120.774 284.709 139.423 281.595 157.433C292.714 161.718 302.644 167.454 311.368 174.645C330.327 190.272 343.193 212.406 349.6 240.433C353.842 258.978 355.275 279.357 354.112 304.561C353.58 316.025 343.85 324.901 332.396 324.361C320.933 323.834 312.065 314.108 312.596 302.645C314.783 255.241 305.732 223.861 284.931 206.714C280.615 203.155 275.737 200.15 270.293 197.685C260.977 221.23 247.379 242.754 229.818 261.739C196.278 297.993 151.095 321.734 108.961 325.24C105.895 325.497 102.868 325.624 99.8891 325.624L99.8848 325.619ZM225.184 189.388C206.927 189.388 185.777 192.293 161.809 198.112C86.9319 216.291 63.7962 247.872 66.5183 264.666C68.5915 277.475 85.0025 285.533 105.516 283.825C137.097 281.199 173.037 261.922 199.313 233.516C209.501 222.502 220.354 207.876 228.712 189.423C227.549 189.397 226.373 189.384 225.184 189.384V189.388Z" fill="#00D195"/>
<path d="M73.6046 163.143L136.657 267.088H84.6847L21.6321 163.143L84.6847 59.1975H136.657L73.6046 163.143Z" stroke="#06232A" stroke-width="2.12974" stroke-miterlimit="10"/>
<path d="M206.508 167.332C182.911 173.06 175.62 183.016 176.478 188.308C177.132 192.345 182.301 194.884 188.769 194.344C198.721 193.517 210.049 187.441 218.329 178.491C221.539 175.02 224.962 170.412 227.593 164.597C227.227 164.589 226.857 164.584 226.482 164.584C220.729 164.584 214.061 165.499 206.508 167.332Z" stroke="#06232A" stroke-width="2.12974" stroke-miterlimit="10"/>
<path d="M266.591 59.1975H162.646L99.5933 163.143L162.646 267.088H227.61L266.591 226.957V267.088H318.564V111.17L266.591 59.1975ZM267.114 200.882C266.948 204.492 263.878 207.293 260.271 207.123C256.656 206.958 253.865 203.891 254.03 200.281C254.718 185.342 251.865 175.451 245.311 170.046C243.952 168.927 242.414 167.977 240.698 167.202C237.763 174.623 233.477 181.405 227.941 187.389C217.371 198.813 203.133 206.296 189.854 207.402C188.887 207.48 187.933 207.524 186.992 207.524C181.618 207.524 176.709 206.217 172.659 203.691C167.668 200.577 164.432 195.86 163.547 190.407C162.864 186.191 163.09 177.855 172.262 169.362C179.248 162.894 189.732 157.934 203.416 154.61C214.013 152.036 223.377 151.083 231.452 151.736C232.123 147.568 232.34 142.999 231.927 138.03C231.16 128.814 227.288 122.703 220.42 119.872C215.124 117.686 208.107 117.551 200.668 119.489C192.82 121.536 184.793 125.817 178.064 131.549C174.053 134.968 170.529 138.844 167.594 143.077C165.533 146.048 161.452 146.788 158.482 144.728C155.512 142.668 154.771 138.587 156.831 135.617C160.412 130.456 164.697 125.734 169.571 121.584C187.005 106.736 209.444 101.183 225.411 107.769C236.853 112.485 243.804 122.851 244.975 136.949C245.476 142.973 245.232 148.848 244.248 154.523C247.754 155.873 250.881 157.681 253.629 159.946C259.605 164.872 263.66 171.845 265.681 180.677C267.018 186.522 267.471 192.946 267.105 200.886L267.114 200.882Z" stroke="#06232A" stroke-width="2.12974" stroke-miterlimit="10"/>
<path d="M186.993 207.515C181.618 207.515 176.71 206.208 172.659 203.682C167.668 200.568 164.432 195.851 163.548 190.398C162.864 186.182 163.09 177.846 172.263 169.353C179.249 162.886 189.728 157.925 203.417 154.602C214.013 152.028 223.377 151.074 231.457 151.727C232.127 147.559 232.345 142.99 231.931 138.021C231.165 128.805 227.293 122.694 220.424 119.863C215.124 117.677 208.112 117.542 200.669 119.48C192.82 121.527 184.793 125.808 178.069 131.54C174.057 134.959 170.534 138.835 167.598 143.069C165.538 146.039 161.457 146.779 158.487 144.719C155.516 142.659 154.776 138.578 156.836 135.608C160.416 130.447 164.702 125.726 169.576 121.575C187.01 106.728 209.449 101.174 225.416 107.76C236.857 112.477 243.808 122.842 244.98 136.941C245.481 142.964 245.237 148.84 244.253 154.515C247.759 155.865 250.886 157.672 253.634 159.937C259.61 164.863 263.664 171.836 265.685 180.669C267.022 186.513 267.475 192.938 267.11 200.877C266.944 204.488 263.878 207.289 260.267 207.119C256.652 206.953 253.861 203.887 254.026 200.276C254.714 185.338 251.861 175.446 245.307 170.041C243.948 168.922 242.41 167.973 240.694 167.197C237.759 174.619 233.473 181.4 227.937 187.385C217.367 198.809 203.129 206.291 189.85 207.397C188.883 207.476 187.929 207.519 186.988 207.519L186.993 207.515ZM226.483 164.584C220.729 164.584 214.061 165.499 206.509 167.332C182.912 173.064 175.621 183.016 176.479 188.308C177.132 192.345 182.306 194.884 188.77 194.344C198.722 193.517 210.05 187.441 218.329 178.491C221.539 175.02 224.963 170.412 227.593 164.597C227.228 164.589 226.857 164.584 226.483 164.584Z" stroke="#06232A" stroke-width="2.12974" stroke-miterlimit="10"/>
</svg>
