<svg width="1376" height="601" viewBox="0 0 1376 601" fill="none" xmlns="http://www.w3.org/2000/svg">
<path d="M174.107 1143.61C93.6169 1143.61 20.0792 1125.2 -40.5865 1089.6C-115.37 1045.7 -163.834 979.246 -177.058 902.464C-187.279 843.088 -183.925 725.617 -46.5168 605.982C58.1097 514.889 215.108 444.957 420.123 398.139C578.847 361.896 719.087 348.417 840.088 357.63C850.16 298.884 853.418 234.56 847.221 164.508C835.734 34.649 777.761 -51.4266 674.902 -91.3248C595.541 -122.11 490.467 -124.012 379.027 -96.6926C261.496 -67.8806 141.272 -7.54263 40.4892 73.2051C-19.6016 121.355 -72.3567 175.985 -116.307 235.612C-147.172 277.483 -208.285 287.898 -252.799 258.856C-297.314 229.824 -308.376 172.34 -277.511 130.469C-223.904 57.7526 -159.703 -8.78442 -86.7086 -67.2597C174.373 -276.465 510.504 -354.679 749.675 -261.914C921.068 -195.427 1025.14 -49.4237 1042.71 149.216C1050.21 234.07 1046.55 316.881 1031.85 396.837C1084.34 415.855 1131.22 441.332 1172.39 473.249C1261.88 542.64 1322.61 640.913 1352.86 765.355C1372.89 847.705 1379.66 938.187 1374.17 1050.09C1371.66 1100.99 1325.73 1140.4 1271.67 1138C1217.55 1135.64 1175.71 1092.48 1178.21 1041.59C1188.54 831.1 1145.81 691.777 1047.62 615.636C1027.25 599.843 1004.21 586.484 978.508 575.558C934.536 680.1 870.336 775.67 787.439 859.963C629.11 1020.94 415.843 1126.34 216.939 1141.91C202.47 1143.05 188.182 1143.61 174.107 1143.61ZM765.56 538.714C679.374 538.714 579.528 551.613 466.405 577.451C112.941 658.168 3.74692 798.393 16.587 872.951C26.3821 929.824 103.838 965.597 200.671 958.016C349.748 946.349 519.395 860.764 643.43 734.65C691.522 685.748 742.755 620.794 782.201 538.874C776.718 538.764 771.16 538.714 765.56 538.714Z" fill="#F7F9F5"/>
</svg>
