<svg width="195" height="30" viewBox="0 0 195 30" fill="none" xmlns="http://www.w3.org/2000/svg">
<g clip-path="url(#clip0_4025_1548)">
<path d="M39.7114 24.2974L48.2306 0.761444H52.7897L61.3089 24.2974H57.4824L55.3192 18.1646H45.6696L43.5394 24.2974H39.7129H39.7114ZM46.8 14.9167H54.2203L50.4929 4.17606L46.7984 14.9167H46.8Z" fill="#06232A"/>
<path d="M79.3284 10.9062C78.7845 9.51335 77.9528 8.39244 76.8319 7.54036C75.7126 6.68985 74.2867 6.26538 72.5558 6.26538C71.2258 6.26538 70.0499 6.60181 69.0296 7.27624C68.2529 7.78875 67.6445 8.48205 67.2044 9.35771L67.132 6.66312H63.8039V29.27H67.3317V21.9C67.5314 22.2726 67.7813 22.6137 68.08 22.9218C68.624 23.4862 69.2843 23.9217 70.0609 24.2314C70.8375 24.5411 71.6691 24.6952 72.5558 24.6952C74.2867 24.6952 75.7126 24.2707 76.8319 23.4186C77.9528 22.5697 78.7845 21.4472 79.3284 20.0543C79.8708 18.663 80.1428 17.1381 80.1428 15.4795C80.1428 13.8209 79.8708 12.2975 79.3284 10.9062ZM75.2677 20.0213C74.458 21.1045 73.3434 21.6453 71.9238 21.6453C70.9916 21.6453 70.1772 21.4189 69.4776 20.9661C68.7796 20.5134 68.2467 19.8232 67.8804 18.8941C67.5156 17.9666 67.3317 16.8284 67.3317 15.4795C67.3317 14.1306 67.5204 12.994 67.8977 12.0664C68.275 11.1373 68.8063 10.4472 69.4949 9.99441C70.1819 9.54165 70.9916 9.31369 71.9238 9.31369C73.3434 9.31369 74.458 9.85607 75.2677 10.9392C76.0773 12.0224 76.4829 13.5364 76.4829 15.4795C76.4829 17.4226 76.0773 18.9397 75.2677 20.0213Z" fill="#06232A"/>
<path d="M99.2281 10.9062C98.6842 9.51335 97.851 8.39244 96.7316 7.54036C95.6107 6.68985 94.1864 6.26538 92.4555 6.26538C91.1239 6.26538 89.948 6.60181 88.9277 7.27624C88.1526 7.78875 87.5427 8.48205 87.1025 9.35771L87.0317 6.66312H83.7036V29.27H87.2314V21.9C87.431 22.2726 87.681 22.6137 87.9797 22.9218C88.5237 23.4862 89.1824 23.9217 89.9606 24.2314C90.7356 24.5411 91.5688 24.6952 92.4555 24.6952C94.1864 24.6952 95.6107 24.2707 96.7316 23.4186C97.851 22.5697 98.6842 21.4472 99.2281 20.0543C99.7705 18.663 100.042 17.1381 100.042 15.4795C100.042 13.8209 99.7705 12.2975 99.2281 10.9062ZM95.1674 20.0213C94.3577 21.1045 93.2431 21.6453 91.8235 21.6453C90.8913 21.6453 90.0769 21.4189 89.3773 20.9661C88.6793 20.5134 88.1464 19.8232 87.78 18.8941C87.4137 17.9666 87.2314 16.8284 87.2314 15.4795C87.2314 14.1306 87.42 12.994 87.7973 12.0664C88.1731 11.1373 88.706 10.4472 89.3946 9.99441C90.0816 9.54165 90.8913 9.31369 91.8235 9.31369C93.2431 9.31369 94.3577 9.85607 95.1674 10.9392C95.977 12.0224 96.3826 13.5364 96.3826 15.4795C96.3826 17.4226 95.977 18.9397 95.1674 20.0213Z" fill="#06232A"/>
<path d="M108.261 5.73401V6.89423H112.687V9.74602H108.261V24.2974H104.734V9.74602H102.272V6.89423H104.734V5.53593C104.734 4.07701 105.144 2.9168 105.966 2.05529C106.787 1.1922 108.073 0.761444 109.826 0.761444H112.954V3.64626H110.291C109.604 3.64626 109.093 3.82862 108.761 4.19335C108.428 4.55808 108.261 5.07058 108.261 5.73401Z" fill="#06232A"/>
<path d="M124.967 6.66312V9.81204H123.269C122.382 9.81204 121.638 9.9551 121.04 10.2428C120.441 10.5305 119.991 10.9723 119.692 11.5681C119.392 12.1655 119.243 12.939 119.243 13.8885V24.2974H115.715V6.66312H118.944L119.038 10.0133C119.313 9.03542 119.721 8.28238 120.258 7.75573C121 7.02627 122.005 6.66312 123.269 6.66312H124.967Z" fill="#06232A"/>
<path d="M134.783 24.6952C133.096 24.6952 131.621 24.3194 130.357 23.568C129.093 22.8165 128.117 21.7443 127.429 20.353C126.74 18.9601 126.397 17.3361 126.397 15.4795C126.397 13.6228 126.742 11.9768 127.429 10.6059C128.116 9.23664 129.092 8.16919 130.357 7.40671C131.621 6.64424 133.098 6.26379 134.783 6.26379C136.468 6.26379 137.944 6.64424 139.208 7.40671C140.472 8.16919 141.449 9.23507 142.137 10.6059C142.824 11.9768 143.168 13.6008 143.168 15.4795C143.168 17.3581 142.824 18.9601 142.137 20.353C141.449 21.7459 140.474 22.8181 139.208 23.568C137.944 24.3194 136.468 24.6952 134.783 24.6952ZM134.783 21.6453C136.291 21.6453 137.455 21.0982 138.278 20.004C139.098 18.9098 139.509 17.4022 139.509 15.4795C139.509 13.5568 139.098 12.0491 138.278 10.955C137.457 9.86077 136.292 9.31368 134.783 9.31368C133.274 9.31368 132.137 9.86077 131.305 10.955C130.474 12.0491 130.057 13.5568 130.057 15.4795C130.057 17.4022 130.474 18.9098 131.305 20.004C132.137 21.0982 133.296 21.6453 134.783 21.6453Z" fill="#06232A"/>
<path d="M161.405 12.961V24.2974H157.877V14.0221C157.877 12.983 157.765 12.1105 157.545 11.403C157.322 10.6956 156.957 10.1548 156.446 9.77904C155.936 9.4033 155.271 9.21465 154.45 9.21465C153.208 9.21465 152.199 9.6234 151.422 10.4409C150.645 11.26 150.257 12.4532 150.257 14.0221V24.2974H146.729V6.66312H149.957L150.043 9.70043C150.24 9.18635 150.488 8.73673 150.79 8.35314C151.343 7.64569 152.021 7.12061 152.82 6.77789C153.618 6.43674 154.483 6.26538 155.415 6.26538C156.747 6.26538 157.849 6.55779 158.726 7.14262C159.602 7.72901 160.268 8.5245 160.723 9.52907C161.177 10.5352 161.405 11.6797 161.405 12.961Z" fill="#06232A"/>
<path d="M170.523 9.54635V19.2588C170.523 20.0763 170.699 20.6407 171.054 20.9504C171.41 21.2601 171.954 21.4142 172.685 21.4142H175.214V24.2974H171.921C170.234 24.2974 168.992 23.9107 168.193 23.1372C167.395 22.3637 166.995 21.1595 166.995 19.5245V9.54635H164.299V6.66311H166.995V2.51904H170.523V6.66311H175.214V9.54635H170.523Z" fill="#06232A"/>
<path d="M188.404 12.5051L181.234 24.2817H187.143L194.314 12.5051L187.143 0.730011H181.234L188.404 12.5051Z" fill="#00D195"/>
<path d="M5.91111 12.5051L13.0815 24.2817H7.17037L0 12.5051L7.17037 0.730011H13.0815L5.91111 12.5051Z" fill="#00D195"/>
<path d="M27.8561 0.730011H16.0355L8.86511 12.5051L16.0355 24.2801H23.4228L27.8561 19.7336V24.2801H33.7673V6.61754L27.8561 0.730011ZM27.9159 16.7812C27.897 17.1899 27.548 17.5075 27.1377 17.4886C26.7274 17.4698 26.4098 17.1223 26.4287 16.7136C26.5073 15.0204 26.1834 13.9011 25.4367 13.288C25.2826 13.1606 25.1065 13.0537 24.9116 12.9657C24.5783 13.8068 24.0909 14.5755 23.4605 15.2531C22.2579 16.547 20.6386 17.3943 19.1294 17.5201C19.0193 17.5295 18.9109 17.5342 18.804 17.5342C18.1924 17.5342 17.6343 17.3865 17.1737 17.1003C16.6062 16.7466 16.2383 16.2137 16.1377 15.5958C16.0606 15.1179 16.0858 14.1731 17.1281 13.2125C17.922 12.4799 19.1152 11.9171 20.6716 11.5414C21.8774 11.2505 22.9417 11.1421 23.8599 11.216C23.9369 10.7443 23.9605 10.2271 23.9133 9.66271C23.8268 8.61883 23.3866 7.92711 22.6053 7.60483C22.0032 7.35801 21.2046 7.34228 20.3588 7.56238C19.4658 7.79348 18.554 8.27926 17.7884 8.92854C17.3325 9.31528 16.9316 9.75547 16.5983 10.235C16.3641 10.5714 15.9003 10.6547 15.5623 10.422C15.2243 10.1878 15.141 9.7256 15.3752 9.38917C15.7824 8.80434 16.2697 8.26983 16.8231 7.79977C18.8055 6.11762 21.3571 5.48877 23.1728 6.23395C24.4745 6.76847 25.2637 7.94283 25.3974 9.54009C25.454 10.2224 25.4272 10.889 25.3156 11.5319C25.7134 11.6844 26.0702 11.8904 26.3831 12.1466C27.0622 12.7047 27.5229 13.4955 27.754 14.4954C27.9064 15.1572 27.9568 15.8851 27.9159 16.7843V16.7812Z" fill="#06232A"/>
<path d="M21.0238 12.9798C18.3402 13.6291 17.5117 14.7563 17.6092 15.3553C17.683 15.8128 18.271 16.1005 19.0068 16.0392C20.1387 15.9448 21.4262 15.2578 22.3679 14.2438C22.7326 13.8508 23.1225 13.3288 23.4212 12.6701C23.3788 12.6701 23.3379 12.6701 23.2955 12.6701C22.6415 12.6701 21.8837 12.7739 21.0238 12.9814V12.9798Z" fill="#06232A"/>
</g>
<defs>
<clipPath id="clip0_4025_1548">
<rect width="194.314" height="28.54" fill="white" transform="translate(0 0.730011)"/>
</clipPath>
</defs>
</svg>
